<svg width="451" height="100" viewBox="0 0 451 100" fill="none" xmlns="http://www.w3.org/2000/svg">
<g clip-path="url(#clip0_115_65)">
<path d="M375.046 4.68606C375.407 3.16911 377.066 3.60716 378.212 3.46655C384.924 18.7902 390.992 34.4032 397.761 49.708C398.822 49.9784 399.889 50.2704 400.959 50.5678C400.954 51.279 400.954 51.9956 400.959 52.7121C397.561 52.6553 394.163 52.7581 390.774 52.6418C387.519 52.7256 384.751 50.3299 383.226 47.6232C381.876 44.7677 380.833 41.7717 379.462 38.9324C374.423 39.0109 369.384 38.927 364.354 38.9838C363.305 42.3017 361.239 45.3112 360.719 48.7724C362.133 49.5673 363.769 49.9026 365.14 50.7923C365.173 51.2709 365.229 52.2254 365.262 52.704C360.649 52.6851 356.041 52.6986 351.433 52.6716C351.562 51.8712 351.711 51.0843 351.87 50.2947C353.575 49.881 355.216 49.2483 356.849 48.5966C363.187 34.0814 368.907 19.2932 375.046 4.68606ZM365.695 35.9012C369.877 35.9905 374.059 35.9391 378.244 35.9526C376.185 30.8501 374.164 25.7314 371.809 20.7587C369.788 25.8153 367.671 30.8258 365.695 35.9012Z" fill="#363636"/>
<path d="M139.859 3.60717C140.799 3.57472 141.745 3.55579 142.691 3.53687C149.338 18.5496 155.263 33.8732 161.776 48.9373C162.536 50.0811 164.234 50.0487 165.411 50.5976C165.443 51.2898 165.481 51.9793 165.522 52.677C161.41 52.5418 157.233 53.0447 153.162 52.3417C147.344 50.4894 146.374 43.7537 143.96 38.9757C138.897 38.9622 133.839 38.9487 128.773 38.9811C127.73 42.3071 125.634 45.3815 125.203 48.8427C126.89 49.9351 130.382 49.8513 129.835 52.677C125.152 52.704 120.466 52.6905 115.775 52.677C115.769 52.0496 115.761 51.4304 115.761 50.8112C117.634 50.0243 119.52 49.2672 121.422 48.5588C127.593 33.5839 133.866 18.6496 139.859 3.60987V3.60717ZM136.531 20.6993C134.111 25.6584 132.265 30.8691 130.058 35.9256C134.305 35.9121 138.56 36.0608 142.806 35.8147C140.465 30.8934 138.457 25.799 136.534 20.6993H136.531Z" fill="#363636"/>
<path d="M271.448 47.1688C277.47 32.6347 283.339 18.0276 289.504 3.55033C290.148 3.55033 291.433 3.54492 292.085 3.54492C298.738 18.7334 305 34.1003 311.319 49.4375C312.607 49.8701 313.901 50.3352 315.172 50.8463C315.108 51.3114 314.987 52.2335 314.922 52.6931C310.656 52.4795 306.267 53.1961 302.085 52.1713C296.583 50.0865 295.766 43.5779 293.301 38.9648C288.256 39.0108 283.212 38.881 278.173 39.0433C277.098 42.188 275.568 45.1516 274.538 48.3018C275.279 50.3028 280.041 49.4456 279.138 52.5634C274.401 52.8094 269.634 52.7445 264.897 52.5823C264.948 48.8697 270.548 50.438 271.448 47.1715V47.1688ZM279.55 35.9472C283.759 35.9282 287.973 35.9931 292.182 35.8823C290.021 30.8636 288.014 25.7909 285.909 20.7533C283.619 25.7449 281.571 30.8393 279.553 35.9472H279.55Z" fill="#363636"/>
<path d="M169.593 4.31832C178.369 4.52383 187.186 3.88568 195.93 4.87265C200.538 5.62166 205.582 7.18458 208.284 11.3109C210.518 15.0235 210.769 19.9773 208.702 23.8251C206.579 27.7649 202.063 29.682 197.84 30.3093C200.454 31.5559 203.324 32.8998 204.649 35.6687C206.894 40.344 208.872 45.149 211.154 49.8026C212.138 49.9189 213.129 50.0541 214.121 50.1839C214.237 51.0167 214.347 51.8496 214.455 52.6959C210.602 52.6499 206.746 52.7797 202.898 52.6256C199.667 52.4823 197.229 49.7837 195.903 47.0391C193.658 41.9907 191.535 36.8828 189.075 31.9291C188.019 31.9155 186.965 31.902 185.914 31.902C185.92 37.8373 185.979 43.7699 185.946 49.7107C187.472 49.9108 188.997 50.1379 190.516 50.4272C190.53 51.1817 190.549 51.9523 190.573 52.7121C183.554 52.6283 176.532 52.75 169.518 52.6608C169.615 51.8604 169.717 51.0735 169.846 50.2839C171.108 50.0838 172.363 49.8134 173.605 49.47C173.516 35.4902 173.619 21.5024 173.56 7.51718C172.266 7.20621 170.978 6.87092 169.685 6.56266C169.647 5.80824 169.615 5.05922 169.588 4.31562L169.593 4.31832ZM185.944 7.35223C185.976 14.5071 185.963 21.6619 185.938 28.8167C188.196 28.7654 190.635 29.0222 192.642 27.7703C196.194 26.0262 197.506 21.7457 197.404 18.0385C197.398 14.4746 196.315 10.2969 192.912 8.53929C190.859 7.1305 188.299 7.35764 185.944 7.35223Z" fill="#363636"/>
<path d="M219.887 6.514C219.868 5.76499 219.86 5.02138 219.868 4.28589C225.815 4.38864 231.759 4.33727 237.712 4.33727C242.004 4.40216 246.386 4.52384 250.503 5.88667C254.582 6.95205 258.751 9.75341 259.724 14.1123C261.119 18.0007 260.298 22.5651 257.633 25.7152C255.315 28.3814 251.866 29.6415 248.501 30.3067C250.026 31.4315 251.861 32.0886 253.262 33.3919C254.981 35.0901 255.701 37.4588 256.73 39.5923C258.126 42.7938 259.729 45.9278 260.842 49.251C261.963 49.7485 263.127 50.1163 264.329 50.4056C264.407 50.9681 264.566 52.0848 264.644 52.6391C260.81 52.6851 256.967 52.7879 253.138 52.6067C249.915 52.4255 247.455 49.7648 246.151 47.0094C243.917 42.0178 241.729 37.0018 239.563 31.9777C238.423 31.9399 237.286 31.9264 236.146 31.9264C236.173 37.8076 236.119 43.6915 236.173 49.5809C237.601 49.8702 239.048 50.1109 240.503 50.2731C240.846 51.0275 241.333 51.8306 240.762 52.631C233.794 52.7987 226.812 52.6256 219.844 52.7094C219.844 51.9929 219.844 51.2817 219.858 50.5787C221.17 50.2244 222.496 49.881 223.802 49.4808C223.738 35.4957 223.765 21.5024 223.797 7.51449C222.49 7.17108 221.191 6.83037 219.89 6.514H219.887ZM236.168 7.33332C236.135 14.4827 236.141 21.6295 236.173 28.7789C238.407 28.7843 240.837 29.0385 242.84 27.8027C246.159 26.1506 247.609 22.2487 247.601 18.7172C247.806 14.9722 246.744 10.6647 243.335 8.61773C241.207 7.21704 238.598 7.27383 236.168 7.33332Z" fill="#363636"/>
<path d="M310.834 4.31826C314.771 4.42101 318.748 4.04786 322.669 4.63463C326.188 5.11865 328.71 8.13363 330.1 11.2081C332.873 17.1542 336.071 22.903 338.742 28.9005C342.164 22.1648 345.12 15.1857 348.208 8.28776C346.613 7.7118 345.042 7.1061 343.471 6.50581C343.471 5.76221 343.484 5.02671 343.508 4.29663C348.316 4.64545 353.244 3.7423 357.973 4.85095C357.124 7.49819 354.023 7.46033 351.924 8.55005C348.262 17.1326 344.066 25.4745 340.482 34.0895C340.148 39.2163 340.509 44.3837 340.31 49.5294C341.552 49.9107 342.832 50.0973 344.125 50.2595C344.222 51.0599 344.311 51.8603 344.408 52.6742C337.607 52.7013 330.806 52.6688 324.011 52.7067C324.089 51.8603 324.191 51.0275 324.299 50.1946C325.528 50.0594 326.756 49.8972 327.993 49.735C327.974 44.7379 328.187 39.7274 327.915 34.7412C323.552 25.6097 318.991 16.5648 314.421 7.53064C313.238 7.18182 312.066 6.81948 310.893 6.47066C310.875 5.93526 310.842 4.85636 310.829 4.31285L310.834 4.31826Z" fill="#363636"/>
<path d="M404.492 4.31016C408.997 4.46429 413.699 3.77476 417.997 5.51885C422.508 8.99893 425.73 13.7959 429.476 18.0331C433.728 22.857 437.648 27.9974 442.146 32.5942C442.03 24.4848 442.243 16.3674 441.992 8.26343C440.281 7.70911 438.594 7.07637 436.907 6.45445C436.875 5.73788 436.856 5.03484 436.851 4.32909C441.542 4.30205 446.239 4.39939 450.935 4.27771C450.935 5.00779 450.935 5.73788 450.941 6.47337C449.189 7.09259 447.459 7.75237 445.74 8.4419C445.63 22.8354 445.735 37.2208 445.689 51.6143C445.624 52.3903 445.517 53.1637 445.36 53.9316C444.28 53.6342 442.787 54.2345 442.065 53.1366C432.176 41.5905 422.47 29.8848 412.492 18.4224C412.293 28.457 412.446 38.4971 412.408 48.5317C414.101 49.2672 415.876 49.8107 417.555 50.584C417.666 51.2763 417.754 51.9712 417.819 52.6769C413.327 52.658 408.835 52.7608 404.352 52.6391C404.063 52.439 403.495 52.0388 403.207 51.8387L404.236 50.3677C405.904 49.8377 407.542 49.2239 409.164 48.5479C409.191 35.0251 409.159 21.4996 409.191 7.97681C407.647 7.41437 406.084 6.93846 404.508 6.4923C404.503 5.94879 404.489 4.85096 404.489 4.31016H404.492Z" fill="#363636"/>
<path d="M46.3142 38.5188L83.2378 75.572C86.2962 78.641 88.0153 82.8052 88.0153 87.1452V99.9541L51.0917 62.9009C48.0333 59.8319 46.3142 55.6677 46.3142 51.3277V38.5188Z" fill="#363636"/>
<path d="M67.2267 12.8089V0L83.2378 16.0673C86.2961 19.1363 88.0152 23.3005 88.0152 27.6405V40.4494L72.0041 24.3821C68.9458 21.3131 67.2267 17.1489 67.2267 12.8089Z" fill="#737373"/>
<path d="M8.3289 37.6075L44.3579 1.45203L79.6863 36.9044C85.0189 42.2557 88.0153 49.516 88.0153 57.0845V72.4298L43.4337 27.6918C42.8328 27.6648 42.3235 27.8649 41.8601 28.184L0 70.1936V57.7875C0 50.219 2.99636 42.9587 8.3289 37.6075Z" fill="#737373"/>
<path d="M120.396 70.2639C124.467 67.1272 130.037 66.2268 134.96 67.5274C138.428 68.4387 141.365 70.7722 143.486 73.6223C142.052 74.5362 140.602 75.4286 139.161 76.329C138.371 75.3069 137.488 74.3388 136.399 73.6358C132.387 70.9074 126.521 71.4158 123.08 74.8553C119.156 78.7275 118.674 85.3442 121.431 90.0086C123.066 92.7938 126.06 94.6839 129.261 95.0083C132.376 95.3842 135.612 94.3215 137.943 92.2232C137.919 90.5359 137.943 88.8459 137.927 87.1586C134.462 87.1586 130.994 87.1613 127.526 87.1586C127.526 85.5118 127.52 83.8678 127.528 82.2237C132.759 82.2265 137.989 82.221 143.222 82.2237C143.23 86.2446 143.205 90.2655 143.232 94.2864C140.4 97.6718 136.135 99.6728 131.77 100.003H129.673C124.702 99.8053 119.782 97.3122 117.033 93.0912C114.403 89.1731 113.703 84.1517 114.646 79.5711C115.397 75.9207 117.429 72.5299 120.396 70.2639Z" fill="#737373"/>
<path d="M195.97 67.2219C199.966 66.5135 204.267 67.1949 207.697 69.4311C211.022 71.5564 213.345 75.0717 214.264 78.8979C215.199 82.8268 214.94 87.0856 213.323 90.8037C211.928 94.0269 209.408 96.7633 206.255 98.3127C202.47 100.195 197.954 100.452 193.936 99.1969C190.433 98.1018 187.388 95.6466 185.548 92.4666C183.387 88.7838 182.807 84.3059 183.505 80.1255C184.112 76.5075 185.903 73.0599 188.69 70.6587C190.746 68.8741 193.297 67.6951 195.97 67.2219ZM196.8 72.1C194.901 72.4677 193.111 73.4168 191.77 74.8202C190.007 76.6454 189.051 79.1358 188.776 81.6397C188.479 84.4087 188.814 87.3155 190.12 89.8032C191.206 91.8961 193.06 93.5942 195.283 94.3919C197.889 95.3329 200.874 95.2626 203.399 94.0891C205.35 93.1778 206.948 91.577 207.929 89.6599C209.3 87.0316 209.591 83.9409 209.168 81.034C208.761 78.3381 207.503 75.6909 205.337 73.9847C202.974 72.0837 199.732 71.5186 196.8 72.1Z" fill="#737373"/>
<path d="M152.351 67.4517C156.689 67.4517 161.03 67.4463 165.371 67.4517C168.098 67.4544 170.916 68.3576 172.859 70.3423C175.597 73.1302 176.152 77.5567 174.899 81.1611C173.883 84.076 171.207 86.1906 168.24 86.8395C170.989 91.0416 173.77 95.222 176.516 99.424C174.414 99.4295 172.312 99.4186 170.213 99.4322C167.621 95.4032 165.058 91.3553 162.474 87.3236C160.874 87.3236 159.27 87.3209 157.67 87.329C157.672 91.3607 157.672 95.3924 157.67 99.424C155.897 99.424 154.124 99.4268 152.351 99.424C152.348 88.7675 152.348 78.1083 152.351 67.4517ZM157.659 72.4109C157.68 75.7531 157.675 79.0925 157.662 82.4347C160.06 82.4834 162.455 82.4482 164.853 82.4536C166.527 82.4699 168.278 81.7668 169.229 80.3364C170.493 78.4111 170.369 75.5854 168.755 73.8981C167.739 72.8463 166.252 72.3731 164.818 72.3839C162.431 72.4001 160.044 72.3514 157.659 72.4109Z" fill="#737373"/>
<path d="M223.689 83.5054C223.692 78.1514 223.681 72.8002 223.692 67.4489C225.451 67.4489 227.214 67.4489 228.976 67.4489C228.981 73.8818 228.965 80.3174 228.981 86.7529C228.992 89.0351 229.563 91.4931 231.285 93.1074C233.082 94.8244 235.742 95.2327 238.127 94.9488C239.97 94.746 241.799 93.8997 242.936 92.3908C244.101 90.8684 244.564 88.9134 244.572 87.0206C244.572 80.4958 244.572 73.971 244.572 67.4489C246.342 67.4435 248.115 67.4489 249.888 67.4489C249.897 72.5298 249.888 77.6106 249.891 82.6915C249.864 86.2311 250.201 89.9491 248.676 93.2588C247.353 96.4198 244.4 98.7101 241.099 99.4645C237.48 100.295 233.519 100.178 230.121 98.583C227.303 97.2716 225.198 94.6541 224.344 91.677C223.49 89.0351 223.714 86.2365 223.689 83.5054Z" fill="#737373"/>
<path d="M259.964 67.4517C263.825 67.4517 267.686 67.4517 271.548 67.4517C273.35 67.4139 275.201 67.4869 276.91 68.1385C279.119 68.9227 281.035 70.5586 282.075 72.6813C283.317 75.169 283.449 78.1569 282.619 80.7961C281.827 83.3216 279.879 85.4307 277.446 86.4475C275.845 87.1478 274.078 87.383 272.342 87.3317C269.99 87.3236 267.638 87.329 265.285 87.329C265.285 91.3606 265.283 95.3923 265.285 99.4267C263.512 99.4294 261.739 99.4267 259.966 99.4294C259.961 88.7702 259.964 78.111 259.964 67.4544V67.4517ZM265.288 72.3866C265.283 75.7314 265.285 79.0763 265.285 82.4239C267.64 82.4185 269.995 82.4347 272.35 82.4158C273.647 82.4158 274.983 82.0778 275.999 81.2341C278.252 79.3819 278.265 75.4556 276.031 73.5817C275.015 72.7327 273.671 72.3676 272.367 72.3839C270.006 72.3839 267.646 72.3839 265.288 72.3839V72.3866Z" fill="#737373"/>
</g>
<defs>
<clipPath id="clip0_115_65">
<rect width="450.943" height="100" fill="white"/>
</clipPath>
</defs>
</svg>
