<svg width="300" height="123" viewBox="0 0 300 123" fill="none" xmlns="http://www.w3.org/2000/svg">
<g clip-path="url(#clip0_116_83)">
<path d="M162.515 1.03967C166.705 -1.65395 171.62 1.27595 174.046 4.97771C181.701 15.7994 188.679 27.2355 197.753 36.9704C196.524 33.9459 194.839 31.1578 193.153 28.3854C197.39 25.5185 201.754 22.8407 206.07 20.084C216.892 33.4261 227.493 46.9572 238.346 60.2993C239.764 62.0163 240.819 64.0011 241.859 65.9701C231.368 57.6845 221.16 49.0523 210.906 40.4831C205.503 45.0197 201.486 51.2261 195.28 54.7546C190.412 57.7475 184.978 54.4238 179.827 54.3765C178.173 51.8247 176.834 49.005 174.755 46.7682C171.258 44.2479 167.319 42.4364 163.618 40.2311C165.035 30.7798 167.335 21.4702 168.186 11.9402C164.468 12.0347 162.027 15.1851 159.176 17.1226C153.395 21.801 147.298 26.1486 141.99 31.3941C143.297 35.5999 145.66 39.3804 147.393 43.413C137.075 49.9029 126.758 56.3928 116.456 62.9457C116.976 58.1098 118.677 53.3054 117.984 48.3907C117.007 45.0512 114.14 42.7829 112.203 40.0105C109.352 36.482 110.155 31.6304 109.241 27.4403C89.7558 40.3413 70.2231 53.1793 50.5959 65.8756C58.8658 55.7469 68.5377 46.8785 76.3192 36.3403C79.5957 30.6537 87.4718 33.7727 91.4728 29.1573C96.7655 23.518 101.601 16.9494 108.816 13.6572C112.266 12.2867 115.605 14.7126 117.889 17.0754C123.985 23.9906 129.625 31.3783 136.398 37.6635C135.437 34.4658 131.846 31.2208 133.815 27.7711C134.776 26.0699 136.682 25.2035 138.162 24.0063C147.74 18.0048 153.757 8.01788 162.515 1.03967Z" fill="#4D4D4D"/>
<path d="M0 87.5191C5.41875 88.0704 12.1449 85.6603 16.4295 90.1024C19.643 93.6939 18.5245 99.0812 16.1145 102.799C22.6516 106.957 21.7852 116.55 15.8309 120.835C10.5697 121.386 5.29273 121.292 0.0157522 121.402C0.0472565 110.108 0.094513 98.8134 0 87.5191H0ZM5.22972 92.6385C5.16671 95.4582 5.11945 98.2778 5.08795 101.113C8.89997 101.46 12.8853 101.271 14.2085 97.0176C12.7593 93.0953 9.0575 92.0557 5.22972 92.6385ZM5.13521 106.343C5.15096 109.493 5.15096 112.644 5.18246 115.794C7.70281 115.826 10.2232 115.857 12.7278 115.936C16.4295 113.526 16.4295 108.548 12.7278 106.107C10.1917 106.217 7.67131 106.264 5.13521 106.343Z" fill="#141414"/>
<path d="M29.9921 87.5191C31.2838 87.5033 33.8829 87.5033 35.1746 87.5033C35.2691 94.8753 35.0171 102.247 35.2533 109.619C35.3479 113.337 38.5928 117.275 42.6254 116.314C46.1854 116.283 48.2174 112.612 48.3749 109.446C48.7215 102.121 48.3749 94.7808 48.5009 87.4561C49.7926 87.4561 52.376 87.5033 53.6676 87.5348C53.2738 95.6944 54.0772 103.901 53.2108 112.029C52.4232 119.023 43.8855 124.505 37.4429 121.04C32.7488 119.449 30.2442 114.55 30.0551 109.84C29.8976 102.405 30.1181 94.9541 29.9921 87.5191Z" fill="#141414"/>
<path d="M64.9462 87.4875C66.2064 87.4875 68.711 87.5191 69.9554 87.5191C69.9554 92.7803 69.8924 98.0415 70.1444 103.287C74.4605 98.2305 78.178 92.7173 82.2578 87.4875C84.2741 87.5033 86.2746 87.5033 88.2909 87.5191C84.5734 92.4022 80.9819 97.3799 77.1226 102.137C80.8086 108.69 84.9515 114.959 88.795 121.433C86.6842 121.323 84.5734 121.213 82.4784 121.087C79.706 116.172 76.6343 111.431 73.7044 106.611C72.4285 108.265 71.1683 109.919 69.9239 111.604C69.9711 114.881 69.9554 118.157 69.9239 121.433C68.648 121.37 66.0961 121.276 64.8359 121.229C65.088 109.982 64.8832 98.7346 64.9462 87.4875Z" fill="#141414"/>
<path d="M97.8682 87.5033C99.1599 87.5033 101.759 87.5033 103.051 87.5191C103.019 98.8134 103.129 110.123 102.988 121.418C101.68 121.37 99.0654 121.276 97.7422 121.229C98.0257 109.982 97.8682 98.7503 97.8682 87.5033Z" fill="#141414"/>
<path d="M112.455 87.4875C119.338 87.5191 126.222 87.5033 133.106 87.5191C133.106 88.8107 133.122 91.4098 133.122 92.7015C130.507 92.67 127.892 92.6543 125.277 92.6385C125.198 102.232 125.23 111.809 125.277 121.402C123.985 121.355 121.386 121.292 120.095 121.26C120.378 111.714 120.284 102.169 120.173 92.6228C117.574 92.6543 114.959 92.6858 112.36 92.7173C112.392 91.4098 112.439 88.795 112.455 87.4875Z" fill="#141414"/>
<path d="M164.484 101.239C161.964 96.5765 163.098 89.1573 168.769 87.456C173.494 85.676 178.346 88.0546 181.213 91.8666C180.299 92.67 178.456 94.3082 177.543 95.1116C176.661 94.198 175.794 93.2843 174.928 92.3707C171.195 91.2365 166.453 93.9459 168.847 98.199C172.407 101.176 177.48 101.995 180.52 105.697C184.442 110.375 182.772 118.803 176.928 121.071C170.99 124.269 163.775 120.063 161.16 114.408C162.058 113.668 163.854 112.187 164.752 111.462C166.674 114.329 169.525 117.149 173.337 116.409C176.598 116.566 179.023 111.888 176.661 109.478C173.195 105.949 167.335 105.524 164.484 101.239Z" fill="#141414"/>
<path d="M188.443 87.5348C189.703 87.5348 192.208 87.5033 193.452 87.4875C195.185 95.0486 197.107 102.562 199.186 110.029C201.486 102.594 203.171 95.0013 205.203 87.4875C206.212 87.4875 208.212 87.5033 209.22 87.5033C211.142 95.0328 213.017 102.578 215.127 110.045C217.254 102.594 219.302 95.1116 220.861 87.5033C222.153 87.5191 224.72 87.5191 226.012 87.5191C223.051 98.7504 220.373 110.06 217.364 121.292C216.325 121.276 214.245 121.244 213.19 121.229C211.331 113.731 209.504 106.201 207.157 98.8291C205.014 106.201 202.856 113.589 201.265 121.103C200.21 121.166 198.099 121.276 197.044 121.339C194.082 110.092 191.216 98.8291 188.443 87.5348Z" fill="#141414"/>
<path d="M235.259 87.5033C236.976 87.4876 238.693 87.4876 240.41 87.4718C240.41 98.7819 240.362 110.076 240.41 121.37C239.118 121.339 236.535 121.292 235.243 121.26C235.337 109.997 235.337 98.7503 235.243 87.5033H235.259Z" fill="#141414"/>
<path d="M252.035 98.64C250.192 92.7802 255.201 86.0225 261.47 86.9362C265.014 86.8102 267.488 89.4565 269.945 91.5673L266.495 94.9698C264.006 91.1893 255.469 91.0947 256.997 97.0963C259.753 101.885 267.015 101.523 269.756 106.422C272.828 111.462 271.048 119.323 265.109 121.276C259.155 124.3 252.35 119.685 249.735 114.25C250.664 113.62 252.539 112.329 253.484 111.683C255.673 114.628 258.981 117.574 262.967 116.267C266.479 115.637 267.377 110.438 264.369 108.564C260.163 105.445 253.437 104.468 252.035 98.64Z" fill="#141414"/>
<path d="M284.453 88.3382C289.241 85.2035 295.857 87.33 298.567 92.2447C297.716 92.9063 295.999 94.2452 295.148 94.9068C293.195 93.3789 291.084 91.6146 288.422 92.4337C285.13 92.7488 284.39 97.821 287.398 99.1757C292.423 101.932 300.063 104.153 299.874 111.226C301.055 118.126 293.353 124.127 286.973 121.686C283.413 120.677 279.695 117.952 278.813 114.266C279.648 113.573 281.334 112.155 282.169 111.447C284.264 115.857 291.21 118.866 294.44 114.109C296.503 108.249 289.383 106.815 285.729 104.531C279.317 101.885 278.687 91.9612 284.453 88.3382Z" fill="#141414"/>
</g>
<defs>
<clipPath id="clip0_116_83">
<rect width="300" height="122.253" fill="white"/>
</clipPath>
</defs>
</svg>
